<?xml version="1.0" encoding="utf-8"?>
<!-- Generator: Adobe Illustrator 15.0.2, SVG Export Plug-In  -->
<!DOCTYPE svg PUBLIC "-//W3C//DTD SVG 1.1//EN" "http://www.w3.org/Graphics/SVG/1.1/DTD/svg11.dtd" [
	<!ENTITY ns_flows "http://ns.adobe.com/Flows/1.0/">
]>
<svg version="1.1"
	 xmlns="http://www.w3.org/2000/svg" xmlns:xlink="http://www.w3.org/1999/xlink" xmlns:a="http://ns.adobe.com/AdobeSVGViewerExtensions/3.0/"
	 x="0px" y="0px" width="781px" height="590px" viewBox="0 -9.075 781 590"
	 overflow="visible" enable-background="new 0 -9.075 781 590" xml:space="preserve">
<defs>
</defs>
<path fill="#231F20" d="M576.492,266.204c19.733-15.204,42.576-26.614,63.884-39.401c10.614-6.37,21.236-12.85,31.16-20.269
	c6.158-4.604,14.525-10.457,16.483-18.426c2.309-9.399-12.162-13.355-14.471-3.961c-0.451,1.839,0.665-1.186,0.062,0.043
	c-0.274,0.558-0.63,1.075-0.982,1.585c1.199-1.739-0.282,0.28-0.578,0.613c-0.564,0.635-1.171,1.233-1.777,1.828
	c-3.162,3.105-5.941,5.135-9.316,7.568c-10.047,7.246-20.725,13.632-31.351,19.979c-20.288,12.118-41.941,23.04-60.709,37.5
	c-3.235,2.493-4.937,6.403-2.672,10.268C568.096,266.724,573.247,268.704,576.492,266.204L576.492,266.204z"/>
<ellipse transform="matrix(0.9946 -0.1034 0.1034 0.9946 -6.4365 36.9129)" fill="#FFFFFA" cx="352.765" cy="80.529" rx="196.399" ry="52.328"/>
<g>
	<g>
		<linearGradient id="SVGID_1_" gradientUnits="userSpaceOnUse" x1="208.9028" y1="122.1528" x2="388.4878" y2="122.1528">
			<stop  offset="0" style="stop-color:#EFA25C"/>
			<stop  offset="1" style="stop-color:#C49A6C"/>
		</linearGradient>
		<path fill="url(#SVGID_1_)" d="M315.725,136.164c-0.984,1.518-1.77,3.32-2.359,5.408c-0.591,2.087-1.239,3.642-1.945,4.665
			c-0.708,1.024-1.897,1.713-3.563,2.068c-4.585,0.98-9.046,1.39-13.384,1.226c-4.341-0.161-7.988-0.663-10.946-1.501
			c-2.957-0.839-6.7-1.781-11.228-2.831c-4.529-1.048-8.75-1.808-12.663-2.279c-16.307-1.854-27.998-5.321-35.074-10.402
			c-7.081-5.08-11.931-13.767-14.559-26.064c-2.65-12.398-0.514-23.942,6.411-34.63c6.923-10.686,16.584-17.354,28.986-20.005
			c12.295-2.626,22.208-1.747,29.738,2.636c7.529,4.385,15.471,13.639,23.829,27.76c2.372,3.962,5.511,8.33,9.42,13.105
			c3.906,4.779,7.101,9.271,9.581,13.48c2.478,4.21,4.354,9.285,5.624,15.225c0.334,1.563,0.151,2.884-0.544,3.958
			c-0.696,1.075-1.866,2.359-3.506,3.854C317.898,133.329,316.626,134.773,315.725,136.164z M380.363,169.424
			c-1.25,0.267-4.233-0.947-8.95-3.645c-3.684-0.41-6.059,0.206-7.124,1.849c-1.065,1.646-0.659,4.063,1.224,7.257
			c4.388,3.205,6.718,5.43,6.984,6.68c0.579,2.71,0.089,5.267-1.466,7.668c-1.558,2.404-3.718,3.899-6.477,4.489
			c-2.763,0.59-5.318,0.103-7.668-1.466c-2.353-1.566-3.816-3.705-4.395-6.417c-0.268-1.25-0.783-2.636-1.544-4.165
			c-0.761-1.524-2.28-3.787-4.556-6.79c-2.275-3-4.165-5.456-5.661-7.371c-1.5-1.912-4.416-5.619-8.751-11.123l-13.525-8.225
			c0.057-0.229,0.291-0.933,0.692-2.109c0.404-1.175,0.801-2.24,1.197-3.197c0.394-0.956,0.879-1.877,1.453-2.764
			c0.572-0.883,1.191-1.697,1.849-2.438c0.659-0.739,1.421-1.501,2.29-2.287c0.868-0.783,1.437-1.314,1.704-1.591l13.188,8.95
			c6.794,1.71,11.371,2.857,13.73,3.44c2.356,0.587,5.37,1.305,9.041,2.155c3.667,0.852,6.354,1.313,8.059,1.383
			c1.703,0.072,3.182-0.026,4.432-0.294c2.709-0.579,5.265-0.087,7.669,1.467c2.401,1.559,3.899,3.718,4.489,6.478
			c0.59,2.763,0.1,5.319-1.466,7.669C385.211,167.381,383.072,168.845,380.363,169.424z"/>
	</g>
</g>
<g>
	<g>
		<linearGradient id="SVGID_2_" gradientUnits="userSpaceOnUse" x1="157.5508" y1="156.5649" x2="320.4697" y2="156.5649">
			<stop  offset="0" style="stop-color:#EFA25C"/>
			<stop  offset="1" style="stop-color:#C49A6C"/>
		</linearGradient>
		<path fill="url(#SVGID_2_)" d="M223.731,141.154c1.29-1.267,2.449-2.855,3.478-4.766c1.031-1.909,2.001-3.286,2.913-4.131
			c0.913-0.846,2.224-1.26,3.928-1.244c4.688,0.04,9.131,0.609,13.33,1.712c4.202,1.1,7.653,2.383,10.358,3.845
			c2.704,1.462,6.153,3.195,10.344,5.204c4.193,2.007,8.148,3.667,11.865,4.977c15.514,5.354,26.172,11.28,31.975,17.777
			c5.807,6.498,8.653,16.031,8.545,28.606c-0.108,12.678-4.703,23.481-13.785,32.409c-9.081,8.925-19.96,13.334-32.642,13.226
			c-12.572-0.108-22.056-3.122-28.454-9.037c-6.396-5.917-12.136-16.675-17.225-32.276c-1.454-4.383-3.568-9.328-6.347-14.839
			c-2.774-5.514-4.916-10.592-6.421-15.24c-1.503-4.647-2.231-10.009-2.18-16.083c0.014-1.599,0.48-2.848,1.392-3.745
			c0.914-0.898,2.333-1.896,4.26-3C220.994,143.449,222.549,142.315,223.731,141.154z M167.869,94.639
			c1.278,0.012,3.926,1.845,7.944,5.503c3.506,1.201,5.959,1.116,7.355-0.256c1.398-1.375,1.526-3.823,0.382-7.35
			c-3.586-4.082-5.377-6.76-5.365-8.039c0.024-2.771,1.059-5.161,3.098-7.167c2.043-2.008,4.477-2.998,7.298-2.974
			c2.825,0.025,5.213,1.056,7.167,3.099c1.956,2.04,2.919,4.445,2.896,7.218c-0.011,1.279,0.19,2.743,0.601,4.401
			c0.412,1.653,1.402,4.192,2.971,7.618c1.569,3.422,2.88,6.23,3.923,8.425c1.048,2.192,3.089,6.445,6.125,12.759l11.414,10.968
			c-0.106,0.211-0.487,0.848-1.134,1.908c-0.649,1.059-1.269,2.013-1.864,2.86c-0.592,0.847-1.266,1.641-2.019,2.382
			c-0.75,0.737-1.531,1.398-2.334,1.977c-0.804,0.578-1.713,1.157-2.732,1.734c-1.017,0.576-1.687,0.97-2.008,1.182l-10.928-11.602
			c-6.26-3.146-10.479-5.26-12.654-6.343c-2.172-1.085-4.958-2.44-8.356-4.068c-3.394-1.628-5.917-2.663-7.564-3.102
			c-1.647-0.441-3.112-0.667-4.39-0.677c-2.77-0.024-5.158-1.059-7.167-3.099c-2.004-2.043-2.998-4.476-2.974-7.298
			c0.025-2.825,1.059-5.213,3.098-7.167C162.692,95.579,165.098,94.616,167.869,94.639z"/>
	</g>
</g>
<g>
	<g>
		<linearGradient id="SVGID_3_" gradientUnits="userSpaceOnUse" x1="274.8711" y1="122.1528" x2="454.4556" y2="122.1528">
			<stop  offset="0" style="stop-color:#EFA25C"/>
			<stop  offset="1" style="stop-color:#C49A6C"/>
		</linearGradient>
		<path fill="url(#SVGID_3_)" d="M381.693,136.164c-0.984,1.518-1.77,3.32-2.359,5.408c-0.591,2.087-1.239,3.642-1.945,4.665
			c-0.708,1.024-1.897,1.713-3.563,2.068c-4.585,0.98-9.046,1.39-13.384,1.226c-4.341-0.161-7.988-0.663-10.946-1.501
			c-2.957-0.839-6.7-1.781-11.228-2.831c-4.529-1.048-8.75-1.808-12.663-2.279c-16.307-1.854-27.998-5.321-35.074-10.402
			c-7.081-5.08-11.931-13.767-14.559-26.064c-2.65-12.398-0.514-23.942,6.411-34.63c6.923-10.686,16.584-17.354,28.986-20.005
			c12.295-2.626,22.208-1.747,29.738,2.636c7.529,4.385,15.471,13.639,23.829,27.76c2.372,3.962,5.511,8.33,9.42,13.105
			c3.906,4.779,7.101,9.271,9.581,13.48c2.478,4.21,4.354,9.285,5.624,15.225c0.334,1.563,0.151,2.884-0.544,3.958
			c-0.696,1.075-1.866,2.359-3.506,3.854C383.866,133.329,382.594,134.773,381.693,136.164z M446.331,169.424
			c-1.25,0.267-4.233-0.947-8.95-3.645c-3.684-0.41-6.059,0.206-7.124,1.849c-1.065,1.646-0.659,4.063,1.224,7.257
			c4.388,3.205,6.718,5.43,6.984,6.68c0.579,2.71,0.089,5.267-1.466,7.668c-1.558,2.404-3.718,3.899-6.477,4.489
			c-2.763,0.59-5.318,0.103-7.668-1.466c-2.353-1.566-3.816-3.705-4.395-6.417c-0.268-1.25-0.783-2.636-1.544-4.165
			c-0.761-1.524-2.28-3.787-4.556-6.79c-2.275-3-4.165-5.456-5.661-7.371c-1.5-1.912-4.416-5.619-8.751-11.123l-13.525-8.225
			c0.057-0.229,0.291-0.933,0.692-2.109c0.404-1.175,0.801-2.24,1.197-3.197c0.394-0.956,0.879-1.877,1.453-2.764
			c0.572-0.883,1.191-1.697,1.849-2.438c0.659-0.739,1.421-1.501,2.29-2.287c0.868-0.783,1.437-1.314,1.704-1.591l13.188,8.95
			c6.794,1.71,11.371,2.857,13.73,3.44c2.356,0.587,5.37,1.305,9.041,2.155c3.667,0.852,6.354,1.313,8.059,1.383
			c1.703,0.072,3.182-0.026,4.432-0.294c2.709-0.579,5.265-0.087,7.669,1.467c2.401,1.559,3.899,3.718,4.489,6.478
			c0.59,2.763,0.1,5.319-1.466,7.669C451.179,167.381,449.04,168.845,446.331,169.424z"/>
	</g>
</g>
<g>
	<g>
		<linearGradient id="SVGID_4_" gradientUnits="userSpaceOnUse" x1="363.251" y1="112.4814" x2="545.6602" y2="112.4814">
			<stop  offset="0" style="stop-color:#EFA25C"/>
			<stop  offset="1" style="stop-color:#C49A6C"/>
		</linearGradient>
		<path fill="url(#SVGID_4_)" d="M379.187,172.028c0.283-1.263,2.661-3.495,7.138-6.692c1.935-3.216,2.373-5.662,1.312-7.335
			c-1.064-1.676-3.46-2.325-7.194-1.943c-4.805,2.681-7.835,3.883-9.099,3.601c-2.738-0.613-4.882-2.146-6.434-4.592
			c-1.553-2.45-2.014-5.069-1.391-7.857c0.625-2.791,2.156-4.936,4.592-6.434c2.435-1.501,5.022-1.943,7.76-1.331
			c1.264,0.284,2.757,0.395,4.484,0.342c1.726-0.057,4.449-0.497,8.173-1.321c3.721-0.825,6.78-1.524,9.174-2.091
			c2.392-0.57,7.036-1.686,13.933-3.347l13.285-8.964c0.186,0.15,0.736,0.662,1.648,1.529c0.908,0.868,1.721,1.684,2.435,2.453
			c0.712,0.766,1.354,1.602,1.927,2.505c0.57,0.9,1.058,1.813,1.46,2.732c0.4,0.919,0.78,1.941,1.136,3.073
			c0.353,1.129,0.601,1.876,0.742,2.24l-13.81,8.349c-4.445,5.526-7.436,9.251-8.971,11.174c-1.536,1.92-3.47,4.389-5.804,7.406
			c-2.333,3.014-3.896,5.29-4.681,6.829c-0.787,1.536-1.321,2.938-1.603,4.2c-0.614,2.737-2.146,4.882-4.593,6.435
			c-2.449,1.55-5.069,2.016-7.857,1.391c-2.791-0.625-4.934-2.157-6.435-4.592C379.016,177.351,378.574,174.765,379.187,172.028z
			 M437.116,126.63c-0.981-1.546-2.307-3.032-3.977-4.456c-1.671-1.427-2.827-2.68-3.469-3.762
			c-0.644-1.085-0.774-2.469-0.397-4.152c1.038-4.633,2.547-8.91,4.532-12.832c1.983-3.925,3.987-7.067,6.01-9.433
			c2.023-2.366,4.472-5.411,7.353-9.132c2.878-3.724,5.363-7.285,7.451-10.686c8.601-14.216,16.733-23.505,24.4-27.866
			c7.666-4.364,17.71-5.155,30.132-2.372c12.529,2.805,22.244,9.651,29.146,20.542c6.902,10.887,8.953,22.593,6.146,35.123
			c-2.781,12.421-7.783,21.168-15,26.242c-7.217,5.072-19.088,8.465-35.612,10.182c-4.647,0.506-9.993,1.547-16.038,3.124
			c-6.048,1.573-11.531,2.611-16.452,3.113c-4.922,0.5-10.383,0.08-16.383-1.265c-1.58-0.354-2.718-1.08-3.41-2.173
			c-0.696-1.097-1.383-2.714-2.064-4.857C438.805,129.827,438.014,128.047,437.116,126.63z"/>
	</g>
</g>
<linearGradient id="SVGID_5_" gradientUnits="userSpaceOnUse" x1="374.0581" y1="116.1401" x2="457.3535" y2="116.1401" gradientTransform="matrix(0.992 -0.1261 0.1261 0.992 -8.5709 54.245)">
	<stop  offset="0" style="stop-color:#EFA25C"/>
	<stop  offset="1" style="stop-color:#C49A6C"/>
</linearGradient>
<path fill="url(#SVGID_5_)" d="M441.279,69.441c1.458,0.565,3.123,0.917,4.995,1.049c1.873,0.135,3.304,0.412,4.293,0.83
	c0.993,0.421,1.784,1.308,2.377,2.656c1.635,3.713,2.763,7.422,3.386,11.125c0.624,3.705,0.838,6.882,0.646,9.537
	c-0.193,2.652-0.335,5.989-0.431,10.009c-0.093,4.021,0.003,7.73,0.289,11.128c1.29,14.141,0.4,24.653-2.664,31.541
	c-3.062,6.889-9.571,12.521-19.53,16.903c-10.041,4.419-20.194,4.633-30.465,0.639c-10.266-3.992-17.609-11.008-22.029-21.05
	c-4.381-9.958-5.374-18.51-2.98-25.658c2.396-7.147,8.842-15.499,19.342-25.055c2.941-2.704,6.091-6.129,9.452-10.278
	c3.363-4.147,6.609-7.641,9.741-10.481c3.132-2.836,7.103-5.316,11.913-7.433c1.267-0.556,2.417-0.634,3.448-0.233
	c1.035,0.402,2.327,1.168,3.881,2.296C438.496,68.096,439.943,68.922,441.279,69.441z"/>
<path fill="#FFFFFA" d="M132.787,127.199l79.592,334.341c106.123,63.587,279.592,41.023,348.979-34.87
	c4.082-47.177,18.367-332.289,18.367-332.289l-227.263,57.793L132.787,127.199z"/>
<linearGradient id="SVGID_6_" gradientUnits="userSpaceOnUse" x1="132.7871" y1="308.7075" x2="299.001" y2="308.7075">
	<stop  offset="0" style="stop-color:#BE1E2D"/>
	<stop  offset="1" style="stop-color:#ED1C24"/>
</linearGradient>
<path fill="url(#SVGID_6_)" d="M212.379,461.54c25.729,15.416,55.42,25.754,86.622,31.511L263.58,141.578l-92.204-17.213
	l-38.588,2.833L212.379,461.54z"/>
<linearGradient id="SVGID_7_" gradientUnits="userSpaceOnUse" x1="594.9658" y1="276.0176" x2="490.2561" y2="284.8032">
	<stop  offset="0" style="stop-color:#BE1E2D"/>
	<stop  offset="1" style="stop-color:#ED1C24"/>
</linearGradient>
<path fill="url(#SVGID_7_)" d="M505.549,467.063c22.122-10.922,41.26-24.479,55.81-40.394
	c4.082-47.177,18.367-332.289,18.367-332.289l-59.733,4.386l-25.418,8.296L505.549,467.063z"/>
<path fill="#231F20" d="M360.857,503.592c-56.763,0-110.406-13.411-151.048-37.764c-1.155-0.692-1.982-1.821-2.294-3.131
	l-79.592-334.341c-0.381-1.603,0.051-3.291,1.157-4.513s2.743-1.82,4.375-1.6l225.189,30.351l219.702-63.02
	c1.552-0.445,3.223-0.113,4.486,0.889c1.265,1.003,1.967,2.555,1.887,4.167c-0.144,2.852-14.337,285.743-18.38,332.47
	c-0.095,1.097-0.549,2.131-1.291,2.943c-20.675,22.613-51.123,41.424-88.053,54.397C441.333,496.97,401.173,503.592,360.857,503.592
	z M216.752,458.318c38.894,22.758,89.969,35.274,144.105,35.274c79.734,0,156.268-27.06,195.663-69.058
	c3.832-46.729,15.664-279.889,17.859-323.419l-213.986,61.38c-0.664,0.191-1.36,0.244-2.046,0.149l-219.01-29.518L216.752,458.318z"
	/>
<ellipse transform="matrix(0.9946 -0.1034 0.1034 0.9946 -6.4564 36.5279)" fill="none" stroke="#231F20" stroke-width="10" stroke-miterlimit="10" cx="349.047" cy="80.529" rx="196.399" ry="52.329"/>
<path fill="#231F20" d="M283.104,141.415c-62.948,0-131.306-10.523-134.377-40.058c-2.182-20.978,29.565-37.65,56.582-47.943
	c36.269-13.817,85.21-24.438,137.808-29.907c24.661-2.564,48.841-3.864,71.869-3.864c62.95,0,131.308,10.523,134.379,40.059
	c2.181,20.978-29.565,37.65-56.582,47.942c-36.268,13.817-85.21,24.438-137.81,29.907
	C330.314,140.114,306.133,141.415,283.104,141.415z M414.987,29.643c-22.685,0-46.517,1.282-70.835,3.81
	c-51.758,5.381-99.803,15.789-135.282,29.305c-32.586,12.415-51.351,26.457-50.196,37.564
	c1.606,15.451,44.863,31.092,124.431,31.092c22.685,0,46.517-1.282,70.836-3.811c51.76-5.382,99.805-15.789,135.283-29.305
	c32.586-12.414,51.351-26.456,50.195-37.563C537.813,45.285,494.556,29.643,414.987,29.643z"/>
<path fill="#FFFFFA" d="M590.018,61.078C586.227,19.783,476.656-3.917,345.286,8.145C213.917,20.206,110.493,63.46,114.285,104.757
	c3.792,41.295,113.362,64.994,244.731,52.932C490.388,145.628,593.81,102.374,590.018,61.078z M357.458,132.577
	c-107.886,11.217-197.768-2.993-200.757-31.738c-2.989-28.746,82.048-61.143,189.934-72.359
	c107.886-11.217,197.77,2.994,200.758,31.739C550.382,88.965,465.346,121.36,357.458,132.577z"/>
<path fill="#231F20" d="M291.937,165.834c-0.002,0-0.001,0-0.004,0c-49.266,0-94.194-5.509-126.51-15.511
	c-34.997-10.832-54.401-26.43-56.116-45.109c-2.05-22.329,22.051-45.179,67.865-64.34C221.257,22.436,280.799,9.044,344.829,3.166
	c22.876-2.1,45.6-3.166,67.54-3.166c49.266,0,94.195,5.509,126.512,15.511c34.997,10.832,54.402,26.431,56.117,45.11
	c2.05,22.329-22.052,45.178-67.864,64.338c-44.087,18.438-103.63,31.83-167.66,37.709
	C336.598,164.769,313.873,165.834,291.937,165.834z M412.368,10c-21.636,0-44.052,1.051-66.625,3.124
	c-63.043,5.788-121.54,18.92-164.714,36.977c-40.847,17.083-63.359,36.839-61.765,54.2c2.742,29.86,75.36,51.533,172.668,51.534
	c0.001,0,0.003,0,0.004,0c21.633,0,44.048-1.051,66.622-3.124c63.044-5.788,121.542-18.92,164.716-36.977
	c40.846-17.083,63.358-36.838,61.764-54.199C582.297,31.674,509.679,10,412.368,10z M286.104,141.415
	c-62.948,0-131.306-10.523-134.377-40.058c-2.182-20.978,29.565-37.65,56.582-47.943c36.269-13.817,85.21-24.438,137.808-29.907
	c24.661-2.564,48.841-3.864,71.869-3.864c62.95,0,131.308,10.523,134.379,40.059c2.181,20.978-29.565,37.65-56.582,47.942
	c-36.268,13.817-85.21,24.438-137.81,29.907C333.314,140.114,309.133,141.415,286.104,141.415z M417.987,29.643
	c-22.685,0-46.517,1.282-70.835,3.81c-51.758,5.381-99.803,15.789-135.282,29.305c-32.586,12.415-51.351,26.457-50.196,37.564
	c1.606,15.451,44.864,31.092,124.431,31.092c22.685,0,46.518-1.282,70.836-3.811c51.76-5.381,99.805-15.789,135.283-29.305
	c32.586-12.414,51.351-26.456,50.195-37.563C540.813,45.285,497.556,29.643,417.987,29.643z"/>
<g>
	<g>
		
			<linearGradient id="SVGID_8_" gradientUnits="userSpaceOnUse" x1="302.1104" y1="111.3267" x2="411.2422" y2="111.3267" gradientTransform="matrix(0.6339 0.7734 -0.7734 0.6339 246.1298 -277.9005)">
			<stop  offset="0" style="stop-color:#EFA25C"/>
			<stop  offset="1" style="stop-color:#C49A6C"/>
		</linearGradient>
		<path fill="url(#SVGID_8_)" d="M367.581,123.808c-3.656-2.346-4.551-6.598-5.777-9.418c-1.226-2.818-2.87-6.311-4.928-10.479
			c-2.061-4.167-4.148-7.914-6.265-11.239c-8.902-13.787-13.631-25.027-14.187-33.721c-0.559-8.696,3.085-17.954,10.93-27.782
			c7.911-9.909,18.192-15.574,30.848-16.993c12.653-1.418,23.936,1.826,33.846,9.739c9.825,7.844,15.429,16.069,16.811,24.671
			c1.381,8.603-0.742,20.611-6.367,36.027c-1.561,4.346-2.949,9.542-4.164,15.593c-1.22,6.05-2.925,11.282-4.354,15.955
			C413.197,118.708,369.097,124.781,367.581,123.808z"/>
	</g>
</g>
<path fill="#231F20" d="M419.891,251.012c-0.396,0-0.799-0.047-1.201-0.146c-2.681-0.661-4.319-3.37-3.658-6.051
	c3.278-13.295,10.98-22.687,21.131-25.768c8.099-2.457,21.384-2.068,38.707,13.741c2.04,1.862,2.185,5.024,0.323,7.064
	s-5.025,2.184-7.063,0.323c-10.806-9.862-21.125-13.966-29.062-11.559c-6.692,2.031-11.914,8.808-14.327,18.592
	C424.18,249.487,422.138,251.012,419.891,251.012z"/>
<path fill="#231F20" d="M306.987,278.75c-0.673,0-1.357-0.137-2.013-0.426c-2.527-1.113-3.674-4.063-2.561-6.591
	c10.554-23.965,23.879-30.352,33.199-31.49c11.666-1.423,23.693,4.672,33.007,16.726c1.688,2.185,1.286,5.325-0.899,7.014
	c-2.185,1.688-5.324,1.286-7.014-0.899c-7.103-9.192-15.805-13.9-23.881-12.914c-9.671,1.181-18.406,10.031-25.26,25.594
	C310.741,277.636,308.908,278.75,306.987,278.75z"/>
<path fill="#231F20" d="M306.989,306.562l177.187-32.812c-7.823,38.921-34.243,99.537-73.837,104.031
	C370.745,382.276,335.826,353.564,306.989,306.562z"/>
<path fill="#231F20" d="M321.461,502.444c8.607,23.626,7.72,49.843,16.327,73.47c3.284,9.015,17.801,5.21,14.489-3.883
	c-8.607-23.626-7.72-49.843-16.327-73.47C332.666,489.546,318.149,493.351,321.461,502.444L321.461,502.444z"/>
<path fill="#231F20" d="M458.405,481.788c-12.269,7.206,5.126,27.599,9.8,34.398c8.911,12.966,19.088,25.401,26.813,39.135
	c4.74,8.426,17.686,0.841,12.939-7.596c-6.622-11.771-15.193-22.544-22.945-33.575c-4.001-5.694-7.968-11.421-11.645-17.331
	c-1.337-2.148-2.61-4.34-3.741-6.604c-1.071-2.147,0.194,0.842-0.448-1.075c-0.206-0.618-0.34-2.016-0.05,0.556
	c0.085,0.748-1.536,4.097-3.128,5.032C474.331,489.834,466.761,476.88,458.405,481.788L458.405,481.788z"/>
<path fill="#231F20" d="M206.784,314.412c-15.782,0.022-31.552,0.536-47.312,1.325c-14.637,0.732-29.492,2.757-44.134,2.757
	c-10.585,0-21.17,0-31.755,0c-9.686,0-9.771,15.004-0.108,15.004c0.957,0,1.913,0,2.869,0c9.687,0,9.772-15.004,0.108-15.004
	c-0.957,0-1.913,0-2.87,0c-9.686,0-9.771,15.004-0.108,15.004c10.49,0,20.98,0,31.47,0c14.088,0,28.39-1.911,42.47-2.657
	c16.406-0.868,32.831-1.402,49.261-1.425C216.361,329.402,216.448,314.399,206.784,314.412L206.784,314.412z"/>
<g>
	<g>
		<linearGradient id="SVGID_9_" gradientUnits="userSpaceOnUse" x1="37.7031" y1="307.874" x2="113.8055" y2="266.6044">
			<stop  offset="0" style="stop-color:#EFA25C"/>
			<stop  offset="1" style="stop-color:#C49A6C"/>
		</linearGradient>
		<path fill="url(#SVGID_9_)" d="M68.749,311.995c-1.396,0.705-2.77,1.709-4.119,3.014c-1.351,1.303-2.513,2.182-3.486,2.641
			c-0.976,0.457-2.164,0.453-3.564-0.008c-3.854-1.264-7.367-2.902-10.539-4.914c-3.174-2.012-5.682-3.977-7.527-5.892
			c-1.845-1.916-4.232-4.25-7.159-7.008c-2.929-2.756-5.753-5.164-8.472-7.22C12.5,284.116,5.272,276.431,2.196,269.549
			c-3.079-6.881-2.92-15.489,0.474-25.825c3.421-10.423,10.047-18.121,19.88-23.092c9.831-4.971,19.958-5.746,30.383-2.324
			c10.335,3.394,17.361,8.371,21.08,14.927c3.717,6.558,5.622,16.935,5.716,31.132c0.046,3.995,0.49,8.627,1.332,13.9
			c0.837,5.273,1.269,10.023,1.288,14.25c0.018,4.226-0.791,8.837-2.43,13.83c-0.431,1.314-1.144,2.222-2.131,2.72
			c-0.989,0.502-2.422,0.951-4.3,1.354C71.607,310.823,70.028,311.348,68.749,311.995z M102.572,365.018
			c-1.051-0.346-2.752-2.553-5.102-6.625c-2.575-1.91-4.619-2.484-6.131-1.721c-1.513,0.766-2.262,2.75-2.247,5.957
			c1.883,4.307,2.656,6.986,2.31,8.037c-0.748,2.277-2.229,3.975-4.437,5.092c-2.212,1.119-4.478,1.295-6.797,0.533
			c-2.322-0.762-4.02-2.24-5.093-4.438c-1.076-2.195-1.238-4.432-0.489-6.711c0.345-1.051,0.563-2.311,0.66-3.785
			c0.095-1.471-0.054-3.824-0.447-7.061c-0.394-3.232-0.736-5.893-1.02-7.975c-0.288-2.082-0.852-6.125-1.695-12.129l-6.526-12.039
			c0.143-0.146,0.624-0.57,1.436-1.275c0.813-0.703,1.575-1.326,2.288-1.869c0.711-0.543,1.475-1.02,2.29-1.432
			c0.812-0.41,1.629-0.75,2.443-1.016c0.815-0.266,1.717-0.504,2.708-0.713c0.99-0.207,1.646-0.355,1.967-0.445l5.959,12.436
			c4.333,4.238,7.254,7.09,8.763,8.553c1.506,1.467,3.446,3.316,5.819,5.551c2.37,2.232,4.177,3.75,5.421,4.545
			c1.242,0.795,2.39,1.367,3.44,1.711c2.277,0.748,3.974,2.229,5.094,4.438c1.115,2.211,1.294,4.479,0.533,6.797
			c-0.763,2.322-2.243,4.02-4.438,5.094C107.085,365.604,104.85,365.766,102.572,365.018z"/>
	</g>
</g>
<ellipse transform="matrix(0.9996 -0.0299 0.0299 0.9996 -5.1412 21.3061)" fill="#F7941E" cx="709.531" cy="182.486" rx="65.203" ry="63.775"/>
<path fill="#FBB040" d="M774.608,177.312c1,33.426-25.246,61.333-58.625,62.332c-33.379,0.998-61.249-25.288-62.249-58.715
	c-1-33.425,25.246-61.333,58.624-62.332C745.74,117.6,773.607,143.887,774.608,177.312z"/>
<path fill="#FFFFFF" d="M744.057,181.284c1.468,4.603,1.1,9.043-1.108,13.321c-2.207,4.277-5.613,7.149-10.218,8.618l-2.375,0.759
	l1.517,4.751c0.426,1.336,0.328,2.609-0.295,3.817c-0.624,1.208-1.604,2.026-2.94,2.453c-1.335,0.425-2.606,0.328-3.817-0.296
	c-1.206-0.624-2.024-1.604-2.452-2.94l-1.515-4.753l-4.752,1.517l1.517,4.752c0.426,1.337,0.326,2.609-0.296,3.817
	c-0.624,1.209-1.604,2.024-2.939,2.451c-1.338,0.427-2.609,0.329-3.816-0.296c-1.208-0.622-2.024-1.604-2.452-2.94l-1.518-4.751
	l-4.75,1.516c-1.338,0.427-2.609,0.328-3.816-0.295c-1.208-0.623-2.026-1.604-2.452-2.94c-0.427-1.337-0.327-2.608,0.295-3.816
	c0.624-1.208,1.604-2.025,2.94-2.452l4.75-1.517l-12.131-38.014l-4.75,1.516c-1.338,0.426-2.61,0.328-3.818-0.296
	c-1.207-0.623-2.025-1.603-2.451-2.94c-0.426-1.336-0.329-2.607,0.296-3.816c0.622-1.208,1.604-2.025,2.94-2.451l4.752-1.517
	l-1.518-4.751c-0.411-1.286-0.309-2.546,0.307-3.779c0.616-1.232,1.593-2.062,2.928-2.489c1.336-0.427,2.613-0.315,3.83,0.333
	c1.214,0.648,2.029,1.617,2.439,2.903l1.516,4.752l4.751-1.517l-1.516-4.752c-0.409-1.286-0.31-2.547,0.307-3.779
	c0.618-1.232,1.58-2.058,2.892-2.478c1.313-0.417,2.588-0.308,3.829,0.333c1.24,0.641,2.065,1.604,2.478,2.891l1.585,4.975
	c4.233-0.75,8.21-0.001,11.928,2.249c3.715,2.25,6.24,5.452,7.565,9.611c1.106,3.465,1.095,7.014-0.037,10.648
	c2.848,0.725,5.391,2.111,7.625,4.152C741.54,175.883,743.122,178.365,744.057,181.284z M712.814,157.222l-11.878,3.791
	l4.548,14.256l11.88-3.792c1.979-0.632,3.44-1.861,4.385-3.69c0.944-1.829,1.102-3.732,0.468-5.713
	c-0.631-1.979-1.861-3.441-3.69-4.386C716.699,156.746,714.796,156.59,712.814,157.222z M725.148,179.464l-16.63,5.307l4.549,14.255
	l16.632-5.308c1.979-0.631,3.44-1.861,4.384-3.689c0.945-1.828,1.103-3.732,0.469-5.712c-0.632-1.979-1.861-3.441-3.69-4.386
	C729.034,178.988,727.13,178.832,725.148,179.464z"/>
<linearGradient id="SVGID_10_" gradientUnits="userSpaceOnUse" x1="441.4922" y1="38.0278" x2="491.1016" y2="38.0278" gradientTransform="matrix(0.992 -0.1261 0.1261 0.992 -8.5709 54.245)">
	<stop  offset="0" style="stop-color:#EFA25C"/>
	<stop  offset="1" style="stop-color:#C49A6C"/>
</linearGradient>
<path fill="url(#SVGID_10_)" d="M458.126,8.847c0.444,1.012-0.06,3.754-1.519,8.222c0.298,3.192,1.237,5.097,2.815,5.711
	c1.581,0.615,3.559-0.155,5.935-2.309c1.943-4.279,3.422-6.644,4.434-7.089c2.195-0.965,4.447-0.998,6.754-0.102
	c2.311,0.898,3.955,2.467,4.939,4.7c0.984,2.238,1.02,4.49,0.102,6.754c-0.914,2.269-2.471,3.883-4.666,4.849
	c-1.012,0.446-2.096,1.126-3.258,2.039c-1.16,0.913-2.809,2.596-4.953,5.05c-2.143,2.454-3.893,4.485-5.252,6.088
	c-1.357,1.606-3.987,4.727-7.891,9.365l-4.595,12.901c-0.206-0.009-0.843-0.084-1.91-0.218c-1.066-0.135-2.038-0.286-2.919-0.453
	c-0.878-0.167-1.743-0.416-2.595-0.747c-0.848-0.33-1.646-0.71-2.39-1.14c-0.74-0.428-1.521-0.941-2.339-1.539
	c-0.815-0.597-1.364-0.986-1.646-1.165l5.27-12.743c0.258-6.055,0.428-10.133,0.509-12.234c0.084-2.101,0.163-4.78,0.24-8.039
	c0.078-3.256-0.001-5.614-0.239-7.07c-0.238-1.456-0.581-2.691-1.026-3.703c-0.967-2.195-0.998-4.446-0.102-6.755
	c0.898-2.307,2.465-3.955,4.7-4.938c2.238-0.984,4.489-1.017,6.754-0.102C455.546,5.097,457.161,6.653,458.126,8.847z"/>
</svg>
